name C:\Users\u0101727\Documents\MyRepositories\paper-ad\trackingsimulations_3d\Results\TrackSim\IK_c4.mot
datacolumns 32
datarows 5
range 3.45000000 3.51400000
endheader
time	pelvis_tilt	pelvis_list	pelvis_rotation	pelvis_tx	pelvis_ty	pelvis_tz	hip_flexion_l	hip_adduction_l	hip_rotation_l	hip_flexion_r	hip_adduction_r	hip_rotation_r	knee_angle_l	knee_angle_r	ankle_angle_l	ankle_angle_r	subtalar_angle_l	subtalar_angle_r	lumbar_extension	lumbar_bending	lumbar_rotation	arm_flex_l	arm_add_l	arm_rot_l	arm_flex_r	arm_add_r	arm_rot_r	elbow_flex_l	elbow_flex_r	pro_sup_l	pro_sup_r	
          3.45000000	         -2.16689985	          4.37942823	          4.40263989	         -0.50807727	          0.94264771	         -0.23002165	         15.04509447	          9.17653417	          3.45984844	         13.63617752	         -1.81645468	         -2.18363350	        -22.13563972	        -65.07273154	          5.23263827	        -12.89136050	          5.74664306	        -13.57360408	         -4.52016901	         -4.07062877	         -3.34248833	         -1.83191174	        -15.69974227	         17.87103045	         -4.80666918	        -16.91030871	         12.14095110	         21.28697370	         23.55116619	         86.51662706	         86.51662706	
          3.46600000	         -2.19508782	          4.16710080	          4.34622257	         -0.48977950	          0.94553504	         -0.23058659	         13.64731492	          8.93281902	          3.80615712	         16.82031674	         -1.90109654	         -2.03858517	        -21.98695678	        -66.34195129	          6.87835564	        -10.74558880	          5.94547146	        -12.84950077	         -4.69851230	         -3.92428681	         -3.83225547	         -1.63190230	        -15.90531937	         17.29360868	         -5.00451019	        -16.82618129	         12.39538099	         22.62671813	         23.05141359	         86.51662706	         86.51662706	
          3.48200000	         -2.17308670	          3.88504279	          4.28217829	         -0.47139040	          0.94821267	         -0.23108738	         12.13493543	          8.59728890	          4.13022686	         19.72765401	         -1.90530246	         -1.95542244	        -21.64335686	        -66.62616585	          8.04701958	         -8.83930298	          6.01524913	        -11.87846862	         -4.89026115	         -3.67291917	         -4.29555702	         -1.42348062	        -16.08909998	         16.78494478	         -5.27425891	        -16.76322660	         12.44585415	         23.94203011	         22.62547395	         86.51662706	         86.51662706	
          3.49800000	         -2.11648447	          3.51650702	          4.32271223	         -0.45289121	          0.95054483	         -0.23169668	         10.56386289	          8.19895238	          4.56621627	         22.30147558	         -1.83459142	         -2.03985693	        -21.19045310	        -65.91782496	          8.77146400	         -7.16712118	          5.85839292	        -10.92678168	         -5.08620182	         -3.29197082	         -4.82730162	         -1.19995544	        -16.25438977	         16.38296716	         -5.63841842	        -16.72124069	         12.20182772	         25.21887697	         22.32634458	         86.51662706	         86.51662706	
          3.51400000	         -2.03709309	          3.10419086	          4.43723879	         -0.43425711	          0.95241669	         -0.23235040	          8.94960611	          7.76085666	          5.06309884	         24.53028841	         -1.74087630	         -2.26212731	        -20.66308756	        -64.27894125	          9.22494004	         -5.57454081	          5.56888680	        -10.19700894	         -5.27821106	         -2.83937834	         -5.39152247	         -0.96616361	        -16.42151314	         16.07909464	         -6.07263300	        -16.68311281	         11.70206009	         26.46141582	         22.11740622	         86.51662706	         86.51662706	
